# Blender 5.0.1
# www.blender.org
mtllib example_slime.mtl
o Body
v 0.500000 1.500000 4.000000
v 0.500000 1.500000 3.500000
v 0.500000 2.000000 3.500000
v 0.500000 2.000000 4.000000
v 0.500000 1.500000 -3.500000
v 0.500000 1.500000 -4.000000
v 0.500000 2.000000 -4.000000
v 0.500000 2.000000 -3.500000
v 1.000000 1.000000 4.000000
v 1.000000 1.000000 3.500000
v 1.000000 1.500000 3.500000
v 1.000000 1.500000 4.000000
v 1.000000 2.500000 3.500000
v 1.000000 2.500000 3.000000
v 1.000000 3.000000 3.000000
v 1.000000 3.000000 3.500000
v 1.000000 3.500000 3.000000
v 1.000000 3.500000 2.500000
v 1.000000 4.000000 2.500000
v 1.000000 4.000000 3.000000
v 1.000000 4.000000 2.000000
v 1.000000 4.500000 2.000000
v 1.000000 4.500000 2.500000
v 1.000000 4.500000 1.500000
v 1.000000 5.000000 1.500000
v 1.000000 5.000000 2.000000
v 1.000000 5.000000 1.000000
v 1.000000 5.000000 -1.000000
v 1.000000 5.500000 -1.000000
v 1.000000 5.500000 1.000000
v 1.000000 4.500000 -1.500000
v 1.000000 4.500000 -2.000000
v 1.000000 5.000000 -2.000000
v 1.000000 5.000000 -1.500000
v 1.000000 4.000000 -2.000000
v 1.000000 4.000000 -2.500000
v 1.000000 4.500000 -2.500000
v 1.000000 3.500000 -2.500000
v 1.000000 3.500000 -3.000000
v 1.000000 4.000000 -3.000000
v 1.000000 2.500000 -3.000000
v 1.000000 2.500000 -3.500000
v 1.000000 3.000000 -3.500000
v 1.000000 3.000000 -3.000000
v 1.000000 1.000000 -3.500000
v 1.000000 1.000000 -4.000000
v 1.000000 1.500000 -4.000000
v 1.000000 1.500000 -3.500000
v 1.500000 0.000000 4.000000
v 1.500000 0.000000 3.500000
v 1.500000 1.000000 3.500000
v 1.500000 1.000000 4.000000
v 1.500000 2.000000 3.500000
v 1.500000 2.000000 3.000000
v 1.500000 2.500000 3.000000
v 1.500000 2.500000 3.500000
v 1.500000 3.000000 3.000000
v 1.500000 3.000000 2.500000
v 1.500000 3.500000 2.500000
v 1.500000 3.500000 3.000000
v 1.500000 4.500000 1.500000
v 1.500000 4.500000 1.000000
v 1.500000 5.000000 1.000000
v 1.500000 5.000000 1.500000
v 1.500000 4.500000 -1.000000
v 1.500000 4.500000 -1.500000
v 1.500000 5.000000 -1.500000
v 1.500000 5.000000 -1.000000
v 1.500000 3.000000 -2.500000
v 1.500000 3.000000 -3.000000
v 1.500000 3.500000 -3.000000
v 1.500000 3.500000 -2.500000
v 1.500000 2.000000 -3.000000
v 1.500000 2.000000 -3.500000
v 1.500000 2.500000 -3.500000
v 1.500000 2.500000 -3.000000
v 1.500000 0.000000 -3.500000
v 1.500000 0.000000 -4.000000
v 1.500000 1.000000 -4.000000
v 1.500000 1.000000 -3.500000
v 2.000000 1.000000 3.500000
v 2.000000 1.000000 3.000000
v 2.000000 2.000000 3.000000
v 2.000000 2.000000 3.500000
v 2.000000 2.500000 3.000000
v 2.000000 2.500000 2.500000
v 2.000000 3.000000 2.500000
v 2.000000 3.000000 3.000000
v 2.000000 3.500000 2.500000
v 2.000000 3.500000 2.000000
v 2.000000 4.000000 2.000000
v 2.000000 4.000000 2.500000
v 2.000000 4.000000 1.000000
v 2.000000 4.500000 1.000000
v 2.000000 4.500000 2.000000
v 2.000000 4.500000 -1.000000
v 2.000000 5.000000 -1.000000
v 2.000000 5.000000 1.000000
v 2.000000 4.000000 -1.000000
v 2.000000 4.000000 -2.000000
v 2.000000 4.500000 -2.000000
v 2.000000 3.500000 -2.000000
v 2.000000 3.500000 -2.500000
v 2.000000 4.000000 -2.500000
v 2.000000 2.500000 -2.500000
v 2.000000 2.500000 -3.000000
v 2.000000 3.000000 -3.000000
v 2.000000 3.000000 -2.500000
v 2.000000 1.000000 -3.000000
v 2.000000 1.000000 -3.500000
v 2.000000 2.000000 -3.500000
v 2.000000 2.000000 -3.000000
v 2.500000 0.000000 3.500000
v 2.500000 0.000000 3.000000
v 2.500000 1.000000 3.000000
v 2.500000 1.000000 3.500000
v 2.500000 1.500000 3.000000
v 2.500000 1.500000 2.500000
v 2.500000 2.500000 2.500000
v 2.500000 2.500000 3.000000
v 2.500000 2.500000 2.000000
v 2.500000 3.500000 2.000000
v 2.500000 3.500000 2.500000
v 2.500000 3.000000 2.000000
v 2.500000 3.000000 1.500000
v 2.500000 4.000000 1.500000
v 2.500000 4.000000 2.000000
v 2.500000 3.500000 1.500000
v 2.500000 3.500000 1.000000
v 2.500000 4.000000 1.000000
v 2.500000 4.000000 -1.000000
v 2.500000 4.500000 -1.000000
v 2.500000 4.500000 1.000000
v 2.500000 3.500000 -1.000000
v 2.500000 3.500000 -2.000000
v 2.500000 4.000000 -2.000000
v 2.500000 3.000000 -1.500000
v 2.500000 3.000000 -2.500000
v 2.500000 3.500000 -2.500000
v 2.500000 3.500000 -1.500000
v 2.500000 2.500000 -2.000000
v 2.500000 2.500000 -2.500000
v 2.500000 3.000000 -2.000000
v 2.500000 1.500000 -2.500000
v 2.500000 1.500000 -3.000000
v 2.500000 2.500000 -3.000000
v 2.500000 0.000000 -3.000000
v 2.500000 0.000000 -3.500000
v 2.500000 1.000000 -3.500000
v 2.500000 1.000000 -3.000000
v 3.000000 0.000000 3.000000
v 3.000000 0.000000 2.500000
v 3.000000 1.000000 2.500000
v 3.000000 1.000000 3.000000
v 3.000000 1.000000 2.000000
v 3.000000 1.500000 2.000000
v 3.000000 1.500000 3.000000
v 3.000000 1.500000 2.500000
v 3.000000 2.500000 2.000000
v 3.000000 2.500000 2.500000
v 3.000000 2.000000 2.000000
v 3.000000 2.000000 1.500000
v 3.000000 3.000000 1.500000
v 3.000000 3.000000 2.000000
v 3.000000 2.500000 1.500000
v 3.000000 2.500000 1.000000
v 3.000000 3.500000 1.000000
v 3.000000 3.500000 1.500000
v 3.000000 3.000000 1.000000
v 3.000000 3.000000 -1.000000
v 3.000000 4.000000 -1.000000
v 3.000000 4.000000 1.000000
v 3.000000 2.500000 -1.000000
v 3.000000 2.500000 -1.500000
v 3.000000 3.500000 -1.500000
v 3.000000 3.500000 -1.000000
v 3.000000 2.000000 -1.500000
v 3.000000 2.000000 -2.000000
v 3.000000 3.000000 -2.000000
v 3.000000 3.000000 -1.500000
v 3.000000 1.000000 -2.000000
v 3.000000 1.000000 -2.500000
v 3.000000 2.500000 -2.500000
v 3.000000 2.500000 -2.000000
v 3.000000 0.000000 -2.500000
v 3.000000 0.000000 -3.000000
v 3.000000 1.000000 -3.000000
v 3.000000 1.500000 -3.000000
v 3.000000 1.500000 -2.500000
v 3.500000 0.000000 2.500000
v 3.500000 0.000000 1.500000
v 3.500000 1.000000 1.500000
v 3.500000 1.000000 2.500000
v 3.500000 1.000000 2.000000
v 3.500000 1.000000 1.000000
v 3.500000 2.000000 1.000000
v 3.500000 2.000000 2.000000
v 3.500000 2.000000 1.500000
v 3.500000 2.000000 -1.500000
v 3.500000 2.500000 -1.500000
v 3.500000 2.500000 1.500000
v 3.500000 1.500000 1.000000
v 3.500000 1.500000 0.500000
v 3.500000 2.000000 0.500000
v 3.500000 2.500000 1.000000
v 3.500000 2.500000 -1.000000
v 3.500000 3.000000 -1.000000
v 3.500000 3.000000 1.000000
v 3.500000 1.500000 -0.500000
v 3.500000 1.500000 -2.000000
v 3.500000 2.000000 -2.000000
v 3.500000 2.000000 -0.500000
v 3.500000 1.000000 -1.000000
v 3.500000 1.000000 -2.000000
v 3.500000 1.500000 -1.000000
v 3.500000 0.000000 -1.500000
v 3.500000 0.000000 -2.500000
v 3.500000 1.000000 -2.500000
v 3.500000 1.000000 -1.500000
v 4.000000 0.000000 1.500000
v 4.000000 0.000000 -1.500000
v 4.000000 1.000000 -1.500000
v 4.000000 1.000000 1.500000
v 4.000000 1.000000 1.000000
v 4.000000 1.000000 -1.000000
v 4.000000 1.500000 -1.000000
v 4.000000 1.500000 1.000000
v 4.000000 1.500000 0.500000
v 4.000000 1.500000 -0.500000
v 4.000000 2.000000 -0.500000
v 4.000000 2.000000 0.500000
v -4.000000 1.000000 1.500000
v -4.000000 1.000000 -1.500000
v -4.000000 0.000000 -1.500000
v -4.000000 0.000000 1.500000
v -4.000000 1.500000 1.000000
v -4.000000 1.500000 -1.000000
v -4.000000 1.000000 -1.000000
v -4.000000 1.000000 1.000000
v -4.000000 2.000000 0.500000
v -4.000000 2.000000 -0.500000
v -4.000000 1.500000 -0.500000
v -4.000000 1.500000 0.500000
v -3.500000 1.000000 2.500000
v -3.500000 1.000000 1.500000
v -3.500000 0.000000 1.500000
v -3.500000 0.000000 2.500000
v -3.500000 2.000000 2.000000
v -3.500000 2.000000 1.000000
v -3.500000 1.000000 1.000000
v -3.500000 1.000000 2.000000
v -3.500000 2.500000 1.500000
v -3.500000 2.500000 -1.500000
v -3.500000 2.000000 -1.500000
v -3.500000 2.000000 1.500000
v -3.500000 2.000000 0.500000
v -3.500000 1.500000 0.500000
v -3.500000 1.500000 1.000000
v -3.500000 3.000000 1.000000
v -3.500000 3.000000 -1.000000
v -3.500000 2.500000 -1.000000
v -3.500000 2.500000 1.000000
v -3.500000 2.000000 -0.500000
v -3.500000 2.000000 -2.000000
v -3.500000 1.500000 -2.000000
v -3.500000 1.500000 -0.500000
v -3.500000 1.500000 -1.000000
v -3.500000 1.000000 -2.000000
v -3.500000 1.000000 -1.000000
v -3.500000 1.000000 -1.500000
v -3.500000 1.000000 -2.500000
v -3.500000 0.000000 -2.500000
v -3.500000 0.000000 -1.500000
v -3.000000 1.000000 3.000000
v -3.000000 1.000000 2.500000
v -3.000000 0.000000 2.500000
v -3.000000 0.000000 3.000000
v -3.000000 1.500000 3.000000
v -3.000000 1.500000 2.000000
v -3.000000 1.000000 2.000000
v -3.000000 2.500000 2.500000
v -3.000000 2.500000 2.000000
v -3.000000 1.500000 2.500000
v -3.000000 3.000000 2.000000
v -3.000000 3.000000 1.500000
v -3.000000 2.000000 1.500000
v -3.000000 2.000000 2.000000
v -3.000000 3.500000 1.500000
v -3.000000 3.500000 1.000000
v -3.000000 2.500000 1.000000
v -3.000000 2.500000 1.500000
v -3.000000 3.500000 -1.500000
v -3.000000 3.000000 -1.500000
v -3.000000 3.000000 1.000000
v -3.000000 4.000000 1.000000
v -3.000000 4.000000 0.000000
v -3.000000 3.500000 0.000000
v -3.000000 4.000000 -1.000000
v -3.000000 3.500000 -1.000000
v -3.000000 3.000000 -1.000000
v -3.000000 3.000000 -2.000000
v -3.000000 2.500000 -2.000000
v -3.000000 2.500000 -1.000000
v -3.000000 2.500000 -1.500000
v -3.000000 2.500000 -2.500000
v -3.000000 2.000000 -2.500000
v -3.000000 2.000000 -1.500000
v -3.000000 2.000000 -2.000000
v -3.000000 1.000000 -2.500000
v -3.000000 1.000000 -2.000000
v -3.000000 1.000000 -3.000000
v -3.000000 0.000000 -3.000000
v -3.000000 0.000000 -2.500000
v -3.000000 1.500000 -2.500000
v -3.000000 1.500000 -3.000000
v -2.500000 1.000000 3.500000
v -2.500000 1.000000 3.000000
v -2.500000 0.000000 3.000000
v -2.500000 0.000000 3.500000
v -2.500000 2.500000 3.000000
v -2.500000 2.500000 2.500000
v -2.500000 1.500000 2.500000
v -2.500000 1.500000 3.000000
v -2.500000 3.500000 2.500000
v -2.500000 3.500000 2.000000
v -2.500000 2.500000 2.000000
v -2.500000 4.000000 2.000000
v -2.500000 4.000000 1.500000
v -2.500000 3.000000 1.500000
v -2.500000 3.000000 2.000000
v -2.500000 4.000000 1.000000
v -2.500000 3.500000 1.000000
v -2.500000 3.500000 1.500000
v -2.500000 4.500000 1.000000
v -2.500000 4.500000 -0.500000
v -2.500000 4.000000 -0.500000
v -2.500000 4.500000 -1.000000
v -2.500000 4.000000 -1.000000
v -2.500000 4.000000 -2.000000
v -2.500000 3.500000 -2.000000
v -2.500000 3.500000 -1.000000
v -2.500000 3.500000 -1.500000
v -2.500000 3.500000 -2.500000
v -2.500000 3.000000 -2.500000
v -2.500000 3.000000 -1.500000
v -2.500000 3.000000 -2.000000
v -2.500000 2.500000 -2.500000
v -2.500000 2.500000 -2.000000
v -2.500000 2.500000 -3.000000
v -2.500000 1.500000 -3.000000
v -2.500000 1.500000 -2.500000
v -2.500000 1.000000 -3.000000
v -2.500000 1.000000 -3.500000
v -2.500000 0.000000 -3.500000
v -2.500000 0.000000 -3.000000
v -2.000000 2.000000 3.500000
v -2.000000 2.000000 3.000000
v -2.000000 1.000000 3.000000
v -2.000000 1.000000 3.500000
v -2.000000 3.000000 3.000000
v -2.000000 3.000000 2.500000
v -2.000000 2.500000 2.500000
v -2.000000 2.500000 3.000000
v -2.000000 4.000000 2.500000
v -2.000000 4.000000 2.000000
v -2.000000 3.500000 2.000000
v -2.000000 3.500000 2.500000
v -2.000000 4.500000 2.000000
v -2.000000 4.500000 1.000000
v -2.000000 4.000000 1.000000
v -2.000000 5.000000 1.000000
v -2.000000 5.000000 0.000000
v -2.000000 4.500000 0.000000
v -2.000000 5.000000 -1.000000
v -2.000000 4.500000 -1.000000
v -2.000000 4.500000 -2.000000
v -2.000000 4.000000 -2.000000
v -2.000000 4.000000 -1.000000
v -2.000000 4.000000 -2.500000
v -2.000000 3.500000 -2.500000
v -2.000000 3.500000 -2.000000
v -2.000000 3.000000 -2.500000
v -2.000000 3.000000 -3.000000
v -2.000000 2.500000 -3.000000
v -2.000000 2.500000 -2.500000
v -2.000000 2.000000 -3.000000
v -2.000000 2.000000 -3.500000
v -2.000000 1.000000 -3.500000
v -2.000000 1.000000 -3.000000
v -1.500000 1.000000 4.000000
v -1.500000 1.000000 3.500000
v -1.500000 0.000000 3.500000
v -1.500000 0.000000 4.000000
v -1.500000 2.500000 3.500000
v -1.500000 2.500000 3.000000
v -1.500000 2.000000 3.000000
v -1.500000 2.000000 3.500000
v -1.500000 3.500000 3.000000
v -1.500000 3.500000 2.500000
v -1.500000 3.000000 2.500000
v -1.500000 3.000000 3.000000
v -1.500000 5.000000 1.500000
v -1.500000 5.000000 1.000000
v -1.500000 4.500000 1.000000
v -1.500000 4.500000 1.500000
v -1.500000 5.000000 -1.000000
v -1.500000 5.000000 -1.500000
v -1.500000 4.500000 -1.500000
v -1.500000 4.500000 -1.000000
v -1.500000 3.500000 -2.500000
v -1.500000 3.500000 -3.000000
v -1.500000 3.000000 -3.000000
v -1.500000 3.000000 -2.500000
v -1.500000 2.500000 -3.000000
v -1.500000 2.500000 -3.500000
v -1.500000 2.000000 -3.500000
v -1.500000 2.000000 -3.000000
v -1.500000 1.000000 -3.500000
v -1.500000 1.000000 -4.000000
v -1.500000 0.000000 -4.000000
v -1.500000 0.000000 -3.500000
v -1.000000 1.500000 4.000000
v -1.000000 1.500000 3.500000
v -1.000000 1.000000 3.500000
v -1.000000 1.000000 4.000000
v -1.000000 3.000000 3.500000
v -1.000000 3.000000 3.000000
v -1.000000 2.500000 3.000000
v -1.000000 2.500000 3.500000
v -1.000000 4.000000 3.000000
v -1.000000 4.000000 2.500000
v -1.000000 3.500000 2.500000
v -1.000000 3.500000 3.000000
v -1.000000 4.500000 2.500000
v -1.000000 4.500000 2.000000
v -1.000000 4.000000 2.000000
v -1.000000 5.000000 2.000000
v -1.000000 5.000000 1.500000
v -1.000000 4.500000 1.500000
v -1.000000 5.500000 1.000000
v -1.000000 5.500000 -1.000000
v -1.000000 5.000000 -1.000000
v -1.000000 5.000000 1.000000
v -1.000000 5.000000 -1.500000
v -1.000000 5.000000 -2.000000
v -1.000000 4.500000 -2.000000
v -1.000000 4.500000 -1.500000
v -1.000000 4.500000 -2.500000
v -1.000000 4.000000 -2.500000
v -1.000000 4.000000 -2.000000
v -1.000000 4.000000 -3.000000
v -1.000000 3.500000 -3.000000
v -1.000000 3.500000 -2.500000
v -1.000000 3.000000 -3.000000
v -1.000000 3.000000 -3.500000
v -1.000000 2.500000 -3.500000
v -1.000000 2.500000 -3.000000
v -1.000000 1.500000 -3.500000
v -1.000000 1.500000 -4.000000
v -1.000000 1.000000 -4.000000
v -1.000000 1.000000 -3.500000
v -0.500000 2.000000 4.000000
v -0.500000 2.000000 3.500000
v -0.500000 1.500000 3.500000
v -0.500000 1.500000 4.000000
v -0.500000 2.000000 -3.500000
v -0.500000 2.000000 -4.000000
v -0.500000 1.500000 -4.000000
v -0.500000 1.500000 -3.500000
v -1.500000 4.000000 -2.500000
v 1.500000 4.000000 -2.500000
v -2.000000 1.500000 -3.000000
v 2.000000 1.500000 -3.000000
v -1.000000 2.000000 -3.500000
v 1.000000 2.000000 -3.500000
v -0.500000 3.000000 -3.500000
v 0.500000 3.000000 -3.500000
v -1.000000 2.000000 3.500000
v 1.000000 2.000000 3.500000
v -0.500000 3.000000 3.500000
v 0.500000 3.000000 3.500000
v 0.500000 2.500000 3.500000
v -0.500000 2.500000 3.500000
v -2.000000 1.500000 3.000000
v 2.000000 1.500000 3.000000
v 1.500000 4.000000 2.500000
v -1.500000 4.000000 2.500000
v -0.500000 4.000000 2.500000
v -0.500000 4.500000 2.500000
v -0.500000 4.500000 2.000000
v -0.500000 5.000000 2.000000
v -2.500000 4.000000 0.000000
v -1.500000 4.000000 2.000000
v 1.500000 4.000000 2.000000
v -2.000000 4.500000 -0.500000
v -1.500000 4.500000 2.000000
v -1.500000 4.500000 -2.000000
v 2.000000 4.500000 1.500000
v 2.000000 4.500000 -1.500000
v -1.000000 5.000000 0.000000
v -0.500000 5.000000 1.500000
v -0.500000 5.000000 1.000000
vn 1.0000 -0.0000 -0.0000
vn -1.0000 -0.0000 -0.0000
vn -0.0000 -0.0000 -1.0000
vn -0.0000 -0.0000 1.0000
vn -0.0000 1.0000 -0.0000
vn -0.0000 -1.0000 -0.0000
s 0
usemtl P16_green
f 1//1 2//1 3//1 4//1
f 5//1 6//1 7//1 8//1
f 9//1 10//1 11//1 12//1
f 13//1 14//1 15//1 16//1
f 17//1 18//1 19//1 20//1
f 19//1 21//1 22//1 23//1
f 22//1 24//1 25//1 26//1
f 27//1 28//1 29//1 30//1
f 31//1 32//1 33//1 34//1
f 35//1 36//1 37//1 32//1
f 38//1 39//1 40//1 36//1
f 41//1 42//1 43//1 44//1
f 45//1 46//1 47//1 48//1
f 53//1 54//1 55//1 56//1
f 61//1 62//1 63//1 64//1
f 65//1 66//1 67//1 68//1
f 69//1 70//1 71//1 72//1
f 73//1 74//1 75//1 76//1
f 81//1 82//1 83//1 84//1
f 91//1 93//1 94//1 95//1
f 94//1 96//1 97//1 98//1
f 99//1 100//1 101//1 96//1
f 102//1 103//1 104//1 100//1
f 105//1 106//1 107//1 108//1
f 109//1 110//1 111//1 112//1
f 117//1 118//1 119//1 120//1
f 119//1 121//1 122//1 123//1
f 124//1 125//1 126//1 127//1
f 128//1 129//1 130//1 126//1
f 130//1 131//1 132//1 133//1
f 134//1 135//1 136//1 131//1
f 137//1 138//1 139//1 140//1
f 141//1 142//1 138//1 143//1
f 144//1 145//1 146//1 142//1
f 154//1 155//1 156//1 157//1
f 158//1 156//1 159//1 160//1
f 161//1 162//1 163//1 164//1
f 165//1 166//1 167//1 168//1
f 169//1 170//1 171//1 172//1
f 173//1 174//1 175//1 176//1
f 177//1 178//1 179//1 180//1
f 181//1 182//1 183//1 184//1
f 182//1 187//1 188//1 189//1
f 194//1 195//1 196//1 197//1
f 198//1 199//1 200//1 201//1
f 202//1 203//1 204//1 196//1
f 205//1 206//1 207//1 208//1
f 209//1 210//1 211//1 212//1
f 213//1 214//1 210//1 215//1
f 224//1 225//1 226//1 227//1
f 228//1 229//1 230//1 231//1
f 236//2 237//2 238//2 239//2
f 240//2 241//2 242//2 243//2
f 248//2 249//2 250//2 251//2
f 252//2 253//2 254//2 255//2
f 249//2 256//2 257//2 258//2
f 259//2 260//2 261//2 262//2
f 263//2 264//2 265//2 266//2
f 267//2 265//2 268//2 269//2
f 278//2 279//2 280//2 274//2
f 281//2 282//2 279//2 283//2
f 284//2 285//2 286//2 287//2
f 288//2 289//2 290//2 291//2
f 289//2 292//2 293//2 294//2
f 296//2 298//2 299//2 297//2
f 300//2 301//2 302//2 303//2
f 304//2 305//2 306//2 307//2
f 308//2 306//2 309//2 310//2
f 314//2 315//2 311//2 309//2
f 320//2 321//2 322//2 323//2
f 324//2 325//2 326//2 321//2
f 335//2 337//2 338//2 336//2
f 338//2 339//2 340//2 341//2
f 342//2 343//2 344//2 345//2
f 346//2 344//2 347//2 348//2
f 347//2 349//2 350//2 351//2
f 356//2 357//2 358//2 359//2
f 372//2 374//2 375//2 373//2
f 375//2 376//2 377//2 378//2
f 377//2 379//2 380//2 381//2
f 382//2 383//2 384//2 385//2
f 386//2 387//2 388//2 389//2
f 394//2 395//2 396//2 397//2
f 406//2 407//2 408//2 409//2
f 410//2 411//2 412//2 413//2
f 414//2 415//2 416//2 417//2
f 422//2 423//2 424//2 425//2
f 426//2 427//2 428//2 429//2
f 430//2 431//2 432//2 433//2
f 440//2 441//2 442//2 443//2
f 444//2 445//2 446//2 447//2
f 446//2 448//2 449//2 450//2
f 449//2 451//2 452//2 453//2
f 454//2 455//2 456//2 457//2
f 458//2 459//2 460//2 461//2
f 462//2 463//2 464//2 465//2
f 466//2 467//2 468//2 469//2
f 242//3 241//3 263//3 266//3
f 209//3 212//3 230//3 229//3
f 238//3 237//3 267//3 269//3
f 213//3 215//3 226//3 225//3
f 261//3 260//3 300//3 303//3
f 173//3 170//3 207//3 206//3
f 299//3 298//3 338//3 341//3
f 134//3 131//3 171//3 176//3
f 338//3 337//3 375//3 378//3
f 99//3 96//3 132//3 131//3
f 375//3 374//3 406//3 409//3
f 65//3 68//3 97//3 96//3
f 442//3 441//3 29//3 28//3
f 254//3 253//3 304//3 307//3
f 177//3 174//3 200//3 199//3
f 293//3 292//3 342//3 345//3
f 137//3 140//3 175//3 180//3
f 408//3 407//3 444//3 447//3
f 31//3 34//3 67//3 66//3
f 268//3 264//3 308//3 310//3
f 181//3 178//3 211//3 214//3
f 302//3 301//3 346//3 348//3
f 141//3 143//3 179//3 184//3
f 340//3 339//3 377//3 381//3
f 102//3 100//3 136//3 135//3
f 377//3 376//3 446//3 450//3
f 35//3 32//3 101//3 100//3
f 446//3 445//3 33//3 32//3
f 314//3 305//3 347//3 351//3
f 144//3 142//3 183//3 189//3
f 347//3 343//3 380//3 385//3
f 105//3 103//3 139//3 142//3
f 382//3 379//3 470//3 413//3
f 69//3 471//3 104//3 108//3
f 410//3 470//3 449//3 453//3
f 38//3 36//3 471//3 72//3
f 449//3 448//3 37//3 36//3
f 311//3 315//3 472//3 389//3
f 109//3 473//3 188//3 187//3
f 350//3 349//3 384//3 472//3
f 473//3 106//3 146//3 145//3
f 386//3 383//3 412//3 417//3
f 73//3 70//3 107//3 112//3
f 414//3 411//3 452//3 457//3
f 41//3 39//3 71//3 76//3
f 454//3 451//3 40//3 44//3
f 388//3 387//3 474//3 461//3
f 45//3 475//3 111//3 110//3
f 458//3 455//3 476//3 469//3
f 5//3 477//3 43//3 48//3
f 416//3 415//3 456//3 474//3
f 466//3 476//3 477//3 8//3
f 475//3 42//3 75//3 74//3
f 460//3 459//3 47//3 46//3
f 468//3 467//3 7//3 6//3
f 9//4 12//4 422//4 425//4
f 1//4 4//4 462//4 465//4
f 424//4 478//4 356//4 359//4
f 81//4 84//4 479//4 10//4
f 464//4 480//4 426//4 423//4
f 11//4 16//4 481//4 2//4
f 478//4 429//4 394//4 397//4
f 53//4 56//4 13//4 479//4
f 482//4 481//4 480//4 483//4
f 358//4 484//4 278//4 274//4
f 154//4 157//4 485//4 82//4
f 484//4 363//4 320//4 323//4
f 117//4 120//4 85//4 485//4
f 396//4 395//4 363//4 357//4
f 83//4 85//4 55//4 54//4
f 428//4 427//4 401//4 395//4
f 55//4 57//4 15//4 14//4
f 15//4 20//4 430//4 427//4
f 322//4 321//4 281//4 283//4
f 158//4 160//4 119//4 118//4
f 362//4 367//4 324//4 321//4
f 119//4 123//4 89//4 86//4
f 19//4 23//4 489//4 488//4
f 280//4 287//4 248//4 251//4
f 194//4 197//4 161//4 155//4
f 326//4 330//4 284//4 282//4
f 159//4 164//4 124//4 121//4
f 122//4 127//4 91//4 90//4
f 91//4 95//4 22//4 21//4
f 22//4 26//4 491//4 490//4
f 286//4 291//4 252//4 255//4
f 198//4 201//4 165//4 162//4
f 329//4 333//4 288//4 285//4
f 163//4 168//4 128//4 125//4
f 61//4 64//4 25//4 24//4
f 250//4 258//4 236//4 239//4
f 224//4 227//4 202//4 195//4
f 290//4 294//4 259//4 262//4
f 205//4 208//4 169//4 166//4
f 167//4 172//4 130//4 129//4
f 130//4 133//4 94//4 93//4
f 94//4 98//4 63//4 62//4
f 27//4 30//4 440//4 443//4
f 257//4 256//4 240//4 243//4
f 228//4 231//4 204//4 203//4
f 236//5 258//5 257//5 243//5
f 242//5 266//5 267//5 237//5
f 278//5 323//5 322//5 283//5
f 314//5 351//5 350//5 315//5
f 422//5 465//5 464//5 423//5
f 458//5 469//5 468//5 459//5
f 1//5 12//5 11//5 2//5
f 5//5 48//5 47//5 6//5
f 117//5 157//5 158//5 118//5
f 144//5 189//5 188//5 145//5
f 202//5 227//5 228//5 203//5
f 209//5 229//5 226//5 215//5
f 240//5 256//5 263//5 241//5
f 248//5 287//5 286//5 255//5
f 254//5 307//5 308//5 264//5
f 356//5 397//5 396//5 357//5
f 386//5 417//5 416//5 387//5
f 462//5 4//5 3//5 463//5
f 466//5 8//5 7//5 467//5
f 53//5 84//5 83//5 54//5
f 73//5 112//5 111//5 74//5
f 161//5 197//5 198//5 162//5
f 177//5 199//5 211//5 178//5
f 204//5 231//5 230//5 212//5
f 252//5 291//5 290//5 262//5
f 261//5 303//5 304//5 253//5
f 281//5 321//5 326//5 282//5
f 302//5 348//5 347//5 305//5
f 320//5 363//5 362//5 321//5
f 347//5 385//5 384//5 349//5
f 394//5 429//5 428//5 395//5
f 414//5 457//5 456//5 415//5
f 13//5 56//5 55//5 14//5
f 41//5 76//5 75//5 42//5
f 85//5 120//5 119//5 86//5
f 105//5 142//5 146//5 106//5
f 119//5 160//5 159//5 121//5
f 141//5 184//5 183//5 142//5
f 165//5 201//5 205//5 166//5
f 173//5 206//5 200//5 174//5
f 259//5 294//5 300//5 260//5
f 284//5 330//5 329//5 285//5
f 293//5 345//5 346//5 301//5
f 382//5 413//5 412//5 383//5
f 426//5 16//5 15//5 427//5
f 454//5 44//5 43//5 455//5
f 69//5 108//5 107//5 70//5
f 124//5 164//5 163//5 125//5
f 137//5 180//5 179//5 143//5
f 169//5 208//5 207//5 170//5
f 288//5 333//5 332//5 289//5
f 299//5 341//5 342//5 292//5
f 324//5 367//5 366//5 325//5
f 340//5 381//5 380//5 343//5
f 410//5 453//5 452//5 411//5
f 38//5 72//5 71//5 39//5
f 89//5 123//5 122//5 90//5
f 102//5 135//5 139//5 103//5
f 128//5 168//5 167//5 129//5
f 134//5 176//5 175//5 140//5
f 296//5 492//5 338//5 298//5
f 338//5 378//5 377//5 339//5
f 377//5 450//5 449//5 379//5
f 430//5 20//5 19//5 431//5
f 449//5 36//5 40//5 451//5
f 35//5 100//5 104//5 36//5
f 91//5 127//5 130//5 93//5
f 99//5 131//5 136//5 100//5
f 130//5 172//5 171//5 131//5
f 335//5 495//5 375//5 337//5
f 375//5 409//5 497//5 376//5
f 408//5 447//5 446//5 497//5
f 446//5 32//5 37//5 448//5
f 489//5 23//5 22//5 490//5
f 22//5 95//5 498//5 24//5
f 31//5 499//5 101//5 32//5
f 61//5 498//5 94//5 62//5
f 65//5 96//5 499//5 66//5
f 94//5 133//5 132//5 96//5
f 372//5 500//5 442//5 374//5
f 406//5 68//5 67//5 407//5
f 444//5 34//5 33//5 445//5
f 491//5 26//5 27//5 502//5
f 25//5 64//5 68//5 28//5
f 63//5 98//5 97//5 68//5
f 440//5 30//5 29//5 441//5
usemtl P16_dark_green
f 49//1 50//1 51//1 52//1
f 77//1 78//1 79//1 80//1
f 113//1 114//1 115//1 116//1
f 147//1 148//1 149//1 150//1
f 151//1 152//1 153//1 154//1
f 185//1 186//1 187//1 182//1
f 190//1 191//1 192//1 193//1
f 216//1 217//1 218//1 219//1
f 220//1 221//1 222//1 223//1
f 232//2 233//2 234//2 235//2
f 244//2 245//2 246//2 247//2
f 270//2 271//2 272//2 273//2
f 274//2 275//2 276//2 277//2
f 309//2 311//2 312//2 313//2
f 316//2 317//2 318//2 319//2
f 352//2 353//2 354//2 355//2
f 390//2 391//2 392//2 393//2
f 418//2 419//2 420//2 421//2
f 234//3 233//3 270//3 273//3
f 216//3 219//3 222//3 221//3
f 272//3 271//3 309//3 313//3
f 185//3 182//3 218//3 217//3
f 312//3 311//3 352//3 355//3
f 147//3 150//3 187//3 186//3
f 354//3 353//3 418//3 421//3
f 77//3 80//3 149//3 148//3
f 420//3 419//3 79//3 78//3
f 49//4 52//4 390//4 393//4
f 392//4 391//4 316//4 319//4
f 113//4 116//4 51//4 50//4
f 318//4 317//4 274//4 277//4
f 151//4 154//4 115//4 114//4
f 276//4 275//4 244//4 247//4
f 190//4 193//4 153//4 152//4
f 246//4 245//4 232//4 235//4
f 220//4 223//4 192//4 191//4
f 232//5 245//5 250//5 239//5
f 238//5 269//5 270//5 233//5
f 244//5 275//5 280//5 251//5
f 268//5 310//5 309//5 271//5
f 316//5 359//5 358//5 317//5
f 352//5 389//5 388//5 353//5
f 390//5 425//5 424//5 391//5
f 418//5 461//5 460//5 419//5
f 9//5 52//5 51//5 10//5
f 45//5 80//5 79//5 46//5
f 81//5 116//5 115//5 82//5
f 109//5 150//5 149//5 110//5
f 153//5 193//5 194//5 155//5
f 181//5 214//5 218//5 182//5
f 192//5 223//5 224//5 195//5
f 213//5 225//5 222//5 219//5
f 234//6 221//6 220//6 235//6
f 246//6 191//6 190//6 247//6
f 272//6 217//6 216//6 273//6
f 276//6 152//6 151//6 277//6
f 312//6 186//6 185//6 313//6
f 318//6 114//6 113//6 319//6
f 354//6 148//6 147//6 355//6
f 392//6 50//6 49//6 393//6
f 420//6 78//6 77//6 421//6
usemtl P16_black
f 57//1 58//1 59//1 60//1
f 89//1 90//1 91//1 92//1
f 398//2 399//2 400//2 401//2
f 3//4 482//4 483//4 463//4
f 427//4 433//4 398//4 401//4
f 57//4 60//4 17//4 15//4
f 400//4 399//4 367//4 361//4
f 87//4 92//4 486//4 58//4
f 432//4 431//4 487//4 399//4
f 398//5 433//5 432//5 399//5
f 17//5 60//5 59//5 18//5
f 487//5 431//5 436//5 493//5
f 486//5 92//5 91//5 494//5
usemtl P16_pink
f 85//1 86//1 87//1 88//1
f 360//2 361//2 362//2 363//2
f 395//4 401//4 360//4 363//4
f 85//4 88//4 57//4 55//4
f 360//5 401//5 400//5 361//5
f 57//5 88//5 87//5 58//5
usemtl P16_lime
f 295//2 296//2 297//2 289//2
f 327//2 328//2 329//2 330//2
f 328//2 331//2 332//2 333//2
f 334//2 335//2 336//2 331//2
f 368//2 369//2 370//2 365//2
f 371//2 372//2 373//2 369//2
f 402//2 403//2 404//2 405//2
f 434//2 435//2 436//2 431//2
f 437//2 438//2 439//2 435//2
f 488//4 489//4 434//4 431//4
f 366//4 365//4 327//4 325//4
f 436//4 435//4 368//4 365//4
f 490//4 491//4 437//4 435//4
f 439//4 438//4 402//4 405//4
f 332//4 331//4 295//4 289//4
f 370//4 369//4 334//4 331//4
f 404//4 403//4 371//4 369//4
f 295//5 331//5 492//5 296//5
f 327//5 365//5 370//5 331//5
f 334//5 369//5 495//5 335//5
f 368//5 496//5 404//5 369//5
f 496//5 435//5 439//5 405//5
f 434//5 489//5 490//5 435//5
f 371//5 443//5 500//5 372//5
f 402//5 501//5 502//5 403//5
f 437//5 491//5 501//5 438//5
usemtl P16_white
f 364//2 365//2 366//2 367//2
f 399//4 487//4 364//4 367//4
f 59//4 486//4 19//4 18//4
f 364//5 487//5 493//5 365//5
f 19//5 486//5 494//5 21//5
o Sprout
v -0.500000 6.500000 0.500000
v -0.500000 6.500000 -0.500000
v -0.500000 7.000000 -0.500000
v -0.500000 7.000000 0.500000
v 0.500000 5.500000 0.500000
v 0.500000 5.500000 -0.500000
v 0.500000 6.500000 -0.500000
v 0.500000 6.500000 0.500000
v 2.000000 6.500000 0.500000
v 2.000000 6.500000 -0.500000
v 2.000000 7.000000 -0.500000
v 2.000000 7.000000 0.500000
v -2.000000 7.000000 0.500000
v -2.000000 7.000000 -0.500000
v -2.000000 6.500000 -0.500000
v -2.000000 6.500000 0.500000
v -0.500000 5.500000 -0.500000
v -0.500000 5.500000 0.500000
v 0.500000 7.000000 0.500000
v 0.500000 7.000000 -0.500000
vn 1.0000 -0.0000 -0.0000
vn -1.0000 -0.0000 -0.0000
vn -0.0000 -0.0000 -1.0000
vn -0.0000 -0.0000 1.0000
vn -0.0000 1.0000 -0.0000
vn -0.0000 -1.0000 -0.0000
s 0
usemtl P16_lime
f 503//7 504//7 505//7 506//7
f 511//7 512//7 513//7 514//7
f 515//8 516//8 517//8 518//8
f 521//8 522//8 509//8 510//8
f 517//9 516//9 505//9 504//9
f 509//9 522//9 513//9 512//9
f 503//10 506//10 515//10 518//10
f 511//10 514//10 521//10 510//10
f 515//11 506//11 505//11 516//11
f 521//11 514//11 513//11 522//11
f 517//12 504//12 503//12 518//12
f 509//12 512//12 511//12 510//12
usemtl P16_brown
f 507//7 508//7 509//7 510//7
f 503//8 504//8 519//8 520//8
f 519//9 504//9 509//9 508//9
f 507//10 510//10 503//10 520//10
f 503//11 510//11 509//11 504//11
f 519//12 508//12 507//12 520//12
