# Blender 5.0.1
# www.blender.org
mtllib boss_slambot.mtl
o Pelvis
v 9.000000 24.000000 3.000000
v 9.000000 24.000000 -6.000000
v 9.000000 27.000000 -6.000000
v 9.000000 27.000000 3.000000
v -9.000000 27.000000 3.000000
v -9.000000 27.000000 -6.000000
v -9.000000 24.000000 -6.000000
v -9.000000 24.000000 3.000000
vn 1.0000 -0.0000 -0.0000
vn -1.0000 -0.0000 -0.0000
vn -0.0000 -0.0000 -1.0000
vn -0.0000 -0.0000 1.0000
vn -0.0000 1.0000 -0.0000
vn -0.0000 -1.0000 -0.0000
s 0
usemtl P16_silver
f 1//1 2//1 3//1 4//1
f 5//2 6//2 7//2 8//2
f 7//3 6//3 3//3 2//3
f 1//4 4//4 5//4 8//4
f 5//5 4//5 3//5 6//5
f 7//6 2//6 1//6 8//6
o Torso
v -12.000000 37.500000 6.000000
v -12.000000 37.500000 -7.500000
v -12.000000 40.500000 -7.500000
v -12.000000 40.500000 6.000000
v 7.500000 27.000000 3.000000
v 7.500000 27.000000 -4.500000
v 7.500000 28.500000 -4.500000
v 7.500000 28.500000 3.000000
v 10.500000 28.500000 6.000000
v 10.500000 28.500000 -6.000000
v 10.500000 30.000000 -6.000000
v 10.500000 30.000000 6.000000
v 10.500000 39.000000 -6.000000
v 10.500000 39.000000 6.000000
v 21.000000 37.500000 6.000000
v 21.000000 37.500000 -7.500000
v 21.000000 40.500000 -7.500000
v 21.000000 40.500000 6.000000
v -21.000000 40.500000 6.000000
v -21.000000 40.500000 -7.500000
v -21.000000 37.500000 -7.500000
v -21.000000 37.500000 6.000000
v -10.500000 30.000000 6.000000
v -10.500000 30.000000 -6.000000
v -10.500000 28.500000 -6.000000
v -10.500000 28.500000 6.000000
v -10.500000 39.000000 6.000000
v -10.500000 39.000000 -6.000000
v -7.500000 28.500000 3.000000
v -7.500000 28.500000 -4.500000
v -7.500000 27.000000 -4.500000
v -7.500000 27.000000 3.000000
v 12.000000 40.500000 6.000000
v 12.000000 40.500000 -7.500000
v 12.000000 37.500000 -7.500000
v 12.000000 37.500000 6.000000
v -3.000000 30.000000 6.000000
v -3.000000 31.500000 6.000000
v -10.500000 31.500000 6.000000
v 3.000000 30.000000 6.000000
v 3.000000 31.500000 6.000000
v 10.500000 31.500000 6.000000
v -4.500000 31.500000 6.000000
v -4.500000 39.000000 6.000000
v -1.500000 31.500000 6.000000
v -1.500000 34.500000 6.000000
v -4.500000 34.500000 6.000000
v 1.500000 31.500000 6.000000
v 1.500000 34.500000 6.000000
v 4.500000 31.500000 6.000000
v 4.500000 34.500000 6.000000
v 4.500000 39.000000 6.000000
v -3.000000 34.500000 6.000000
v -3.000000 39.000000 6.000000
v 3.000000 34.500000 6.000000
v 3.000000 36.000000 6.000000
v -3.000000 36.000000 6.000000
v 3.000000 39.000000 6.000000
v -7.500000 28.500000 -6.000000
v -7.500000 28.500000 6.000000
v 10.500000 28.500000 3.000000
v 10.500000 28.500000 -4.500000
vn 1.0000 -0.0000 -0.0000
vn -1.0000 -0.0000 -0.0000
vn -0.0000 -0.0000 -1.0000
vn -0.0000 -0.0000 1.0000
vn -0.0000 1.0000 -0.0000
vn -0.0000 -1.0000 -0.0000
s 0
usemtl P16_silver
f 9//7 10//7 11//7 12//7
f 17//7 18//7 19//7 20//7
f 23//7 24//7 25//7 26//7
f 27//8 28//8 29//8 30//8
f 31//8 32//8 33//8 34//8
f 41//8 42//8 43//8 44//8
f 33//9 32//9 19//9 18//9
f 29//9 28//9 11//9 10//9
f 43//9 42//9 25//9 24//9
f 17//10 20//10 31//10 34//10
f 9//10 12//10 27//10 30//10
f 23//10 26//10 41//10 44//10
f 27//11 12//11 11//11 28//11
f 41//11 26//11 25//11 42//11
f 33//12 67//12 68//12 34//12
f 37//12 69//12 17//12 68//12
f 67//12 18//12 70//12 38//12
f 15//12 70//12 69//12 16//12
f 29//12 10//12 9//12 30//12
f 43//12 24//12 23//12 44//12
usemtl P16_orange
f 13//7 14//7 15//7 16//7
f 37//8 38//8 39//8 40//8
f 39//9 38//9 15//9 14//9
f 13//10 16//10 37//10 40//10
f 39//12 14//12 13//12 40//12
usemtl P16_white
f 20//7 19//7 21//7 22//7
f 35//8 36//8 32//8 31//8
f 32//9 36//9 21//9 19//9
f 45//10 46//10 47//10 31//10
f 20//10 50//10 49//10 48//10
f 51//10 52//10 35//10 47//10
f 50//10 22//10 60//10 58//10
f 61//10 62//10 52//10 55//10
f 59//10 60//10 66//10 63//10
f 64//10 66//10 62//10 65//10
f 35//11 22//11 21//11 36//11
usemtl P16_black
f 48//10 49//10 46//10 45//10
f 53//10 54//10 55//10 51//10
f 58//10 59//10 57//10 56//10
f 63//10 64//10 65//10 61//10
usemtl P16_red
f 56//10 57//10 54//10 53//10
o Head
v -9.000000 42.000000 6.000000
v -9.000000 42.000000 4.500000
v -9.000000 45.000000 4.500000
v -9.000000 45.000000 6.000000
v -6.000000 46.500000 3.000000
v -6.000000 46.500000 -3.000000
v -6.000000 48.000000 -3.000000
v -6.000000 48.000000 3.000000
v -4.500000 42.000000 7.500000
v -4.500000 42.000000 4.500000
v -4.500000 45.000000 4.500000
v -4.500000 45.000000 7.500000
v 1.500000 46.500000 3.000000
v 1.500000 46.500000 -3.000000
v 1.500000 48.000000 -3.000000
v 1.500000 48.000000 3.000000
v 6.000000 39.000000 3.000000
v 6.000000 39.000000 -4.500000
v 6.000000 40.500000 -4.500000
v 6.000000 40.500000 3.000000
v 7.500000 42.000000 7.500000
v 7.500000 42.000000 4.500000
v 7.500000 45.000000 4.500000
v 7.500000 45.000000 7.500000
v 7.500000 46.500000 3.000000
v 7.500000 46.500000 -3.000000
v 7.500000 48.000000 -3.000000
v 7.500000 48.000000 3.000000
v 12.000000 40.500000 6.000000
v 12.000000 40.500000 3.000000
v 12.000000 46.500000 3.000000
v 12.000000 46.500000 6.000000
v 12.000000 40.500000 -6.000000
v 12.000000 42.000000 -6.000000
v 12.000000 42.000000 3.000000
v 12.000000 42.000000 -3.000000
v 12.000000 45.000000 -3.000000
v 12.000000 45.000000 3.000000
v 12.000000 45.000000 -6.000000
v 12.000000 46.500000 -6.000000
v -12.000000 46.500000 6.000000
v -12.000000 46.500000 3.000000
v -12.000000 40.500000 3.000000
v -12.000000 40.500000 6.000000
v -12.000000 42.000000 3.000000
v -12.000000 42.000000 -6.000000
v -12.000000 40.500000 -6.000000
v -12.000000 45.000000 3.000000
v -12.000000 45.000000 -3.000000
v -12.000000 42.000000 -3.000000
v -12.000000 46.500000 -6.000000
v -12.000000 45.000000 -6.000000
v -7.500000 45.000000 7.500000
v -7.500000 45.000000 4.500000
v -7.500000 42.000000 4.500000
v -7.500000 42.000000 7.500000
v -7.500000 48.000000 3.000000
v -7.500000 48.000000 -3.000000
v -7.500000 46.500000 -3.000000
v -7.500000 46.500000 3.000000
v -6.000000 40.500000 3.000000
v -6.000000 40.500000 -4.500000
v -6.000000 39.000000 -4.500000
v -6.000000 39.000000 3.000000
v -1.500000 48.000000 3.000000
v -1.500000 48.000000 -3.000000
v -1.500000 46.500000 -3.000000
v -1.500000 46.500000 3.000000
v 4.500000 45.000000 7.500000
v 4.500000 45.000000 4.500000
v 4.500000 42.000000 4.500000
v 4.500000 42.000000 7.500000
v 6.000000 48.000000 3.000000
v 6.000000 48.000000 -3.000000
v 6.000000 46.500000 -3.000000
v 6.000000 46.500000 3.000000
v 9.000000 45.000000 6.000000
v 9.000000 45.000000 4.500000
v 9.000000 42.000000 4.500000
v 9.000000 42.000000 6.000000
v 12.000000 42.000000 6.000000
v -12.000000 42.000000 6.000000
v -9.000000 46.500000 6.000000
v 9.000000 46.500000 6.000000
v -7.500000 42.000000 6.000000
v -4.500000 42.000000 6.000000
v 4.500000 42.000000 6.000000
v 7.500000 42.000000 6.000000
v -4.500000 45.000000 6.000000
v -7.500000 45.000000 6.000000
v 7.500000 45.000000 6.000000
v 4.500000 45.000000 6.000000
v -7.500000 46.500000 6.000000
v -7.500000 46.500000 -6.000000
v 12.000000 46.500000 -3.000000
v -6.000000 40.500000 -6.000000
v -6.000000 40.500000 6.000000
v 12.000000 40.500000 -4.500000
vn 1.0000 -0.0000 -0.0000
vn -1.0000 -0.0000 -0.0000
vn -0.0000 -0.0000 -1.0000
vn -0.0000 -0.0000 1.0000
vn -0.0000 1.0000 -0.0000
vn -0.0000 -1.0000 -0.0000
s 0
usemtl P16_white
f 71//13 72//13 73//13 74//13
f 99//13 100//13 101//13 102//13
f 100//13 103//13 104//13 105//13
f 108//13 109//13 110//13 101//13
f 106//13 104//13 109//13 107//13
f 111//14 112//14 113//14 114//14
f 115//14 116//14 117//14 113//14
f 112//14 121//14 122//14 118//14
f 119//14 122//14 116//14 120//14
f 147//14 148//14 149//14 150//14
f 117//15 121//15 110//15 103//15
f 99//16 151//16 152//16 114//16
f 71//16 153//16 111//16 152//16
f 151//16 102//16 154//16 150//16
f 147//16 154//16 153//16 74//16
f 71//17 155//17 125//17 72//17
f 156//17 157//17 141//17 80//17
f 158//17 150//17 149//17 92//17
f 111//17 163//17 164//17 121//17
f 163//17 102//17 101//17 130//17
f 129//17 165//17 110//17 164//17
f 75//17 138//17 137//17 76//17
f 83//17 146//17 145//17 84//17
f 95//17 101//17 165//17 96//17
f 117//18 166//18 167//18 114//18
f 131//18 100//18 99//18 167//18
f 166//18 103//18 168//18 132//18
f 89//18 168//18 100//18 90//18
f 73//18 124//18 160//18 74//18
f 81//18 140//18 162//18 159//18
f 93//18 148//18 147//18 161//18
usemtl P16_silver
f 75//13 76//13 77//13 78//13
f 83//13 84//13 85//13 86//13
f 95//13 96//13 97//13 98//13
f 127//14 128//14 129//14 130//14
f 135//14 136//14 137//14 138//14
f 143//14 144//14 145//14 146//14
f 129//15 128//15 77//15 76//15
f 137//15 136//15 85//15 84//15
f 145//15 144//15 97//15 96//15
f 75//16 78//16 127//16 130//16
f 83//16 86//16 135//16 138//16
f 95//16 98//16 143//16 146//16
f 127//17 78//17 77//17 128//17
f 135//17 86//17 85//17 136//17
f 143//17 98//17 97//17 144//17
usemtl P16_red
f 79//13 80//13 81//13 82//13
f 91//13 92//13 93//13 94//13
f 123//14 124//14 125//14 126//14
f 139//14 140//14 141//14 142//14
f 79//16 82//16 123//16 126//16
f 91//16 94//16 139//16 142//16
f 123//17 82//17 159//17 160//17
f 139//17 94//17 161//17 162//17
f 155//18 156//18 79//18 126//18
f 157//18 158//18 91//18 142//18
usemtl P16_orange
f 87//13 88//13 89//13 90//13
f 131//14 132//14 133//14 134//14
f 133//15 132//15 89//15 88//15
f 87//16 90//16 131//16 134//16
f 133//18 88//18 87//18 134//18
usemtl P16_black
f 105//13 106//13 107//13 108//13
f 118//14 119//14 120//14 115//14
f 125//16 124//16 73//16 72//16
f 141//16 140//16 81//16 80//16
f 149//16 148//16 93//16 92//16
o UpperArmR
v -13.500000 28.500000 4.500000
v -13.500000 28.500000 3.000000
v -13.500000 37.500000 3.000000
v -13.500000 37.500000 4.500000
v -13.500000 28.500000 -6.000000
v -13.500000 33.000000 -6.000000
v -13.500000 33.000000 3.000000
v -13.500000 33.000000 -4.500000
v -13.500000 37.500000 -6.000000
v -13.500000 37.500000 -4.500000
v -10.500000 33.000000 3.000000
v -10.500000 33.000000 -4.500000
v -10.500000 37.500000 -4.500000
v -10.500000 37.500000 3.000000
v -19.500000 37.500000 4.500000
v -19.500000 37.500000 -6.000000
v -19.500000 28.500000 -6.000000
v -19.500000 28.500000 4.500000
vn 1.0000 -0.0000 -0.0000
vn -1.0000 -0.0000 -0.0000
vn -0.0000 -0.0000 -1.0000
vn -0.0000 -0.0000 1.0000
vn -0.0000 1.0000 -0.0000
vn -0.0000 -1.0000 -0.0000
s 0
usemtl P16_white
f 169//19 170//19 171//19 172//19
f 170//19 173//19 174//19 175//19
f 176//19 174//19 177//19 178//19
f 183//20 184//20 185//20 186//20
f 185//21 184//21 177//21 173//21
f 169//22 172//22 183//22 186//22
f 183//23 172//23 177//23 184//23
f 185//24 173//24 169//24 186//24
usemtl P16_orange
f 179//19 180//19 181//19 182//19
f 176//21 178//21 181//21 180//21
f 179//22 182//22 171//22 175//22
f 171//23 182//23 181//23 178//23
f 176//24 180//24 179//24 175//24
o ForearmR
v -13.500000 27.000000 4.500000
v -13.500000 27.000000 -4.500000
v -13.500000 28.500000 -4.500000
v -13.500000 28.500000 4.500000
v -12.000000 19.500000 6.000000
v -12.000000 19.500000 -6.000000
v -12.000000 27.000000 -6.000000
v -12.000000 27.000000 6.000000
v -21.000000 27.000000 6.000000
v -21.000000 27.000000 3.000000
v -21.000000 19.500000 3.000000
v -21.000000 19.500000 6.000000
v -21.000000 21.000000 3.000000
v -21.000000 21.000000 -6.000000
v -21.000000 19.500000 -6.000000
v -21.000000 25.500000 3.000000
v -21.000000 25.500000 -3.000000
v -21.000000 21.000000 -3.000000
v -21.000000 27.000000 -6.000000
v -21.000000 25.500000 -6.000000
v -19.500000 28.500000 4.500000
v -19.500000 28.500000 -4.500000
v -19.500000 27.000000 -4.500000
v -19.500000 27.000000 4.500000
v -19.500000 27.000000 6.000000
v -19.500000 27.000000 -6.000000
v -12.000000 27.000000 4.500000
v -12.000000 27.000000 -4.500000
vn 1.0000 -0.0000 -0.0000
vn -1.0000 -0.0000 -0.0000
vn -0.0000 -0.0000 -1.0000
vn -0.0000 -0.0000 1.0000
vn -0.0000 1.0000 -0.0000
vn -0.0000 -1.0000 -0.0000
s 0
usemtl P16_orange
f 187//25 188//25 189//25 190//25
f 207//26 208//26 209//26 210//26
f 209//27 208//27 189//27 188//27
f 187//28 190//28 207//28 210//28
f 207//29 190//29 189//29 208//29
usemtl P16_white
f 191//25 192//25 193//25 194//25
f 195//26 196//26 197//26 198//26
f 199//26 200//26 201//26 197//26
f 196//26 205//26 206//26 202//26
f 203//26 206//26 200//26 204//26
f 201//27 205//27 193//27 192//27
f 191//28 194//28 195//28 198//28
f 195//29 211//29 212//29 205//29
f 211//29 194//29 213//29 210//29
f 209//29 214//29 193//29 212//29
f 187//29 213//29 214//29 188//29
f 201//30 192//30 191//30 198//30
usemtl P16_silver
f 202//26 203//26 204//26 199//26
o FistR
v -13.500000 18.000000 4.500000
v -13.500000 18.000000 -4.500000
v -13.500000 19.500000 -4.500000
v -13.500000 19.500000 4.500000
v -12.000000 9.000000 7.500000
v -12.000000 9.000000 -7.500000
v -12.000000 10.500000 -7.500000
v -12.000000 10.500000 7.500000
v -12.000000 13.500000 -7.500000
v -12.000000 13.500000 7.500000
v -12.000000 13.500000 6.000000
v -12.000000 16.500000 6.000000
v -12.000000 16.500000 7.500000
v -12.000000 16.500000 -7.500000
v -12.000000 18.000000 -7.500000
v -12.000000 18.000000 7.500000
v -21.000000 10.500000 7.500000
v -21.000000 10.500000 -7.500000
v -21.000000 9.000000 -7.500000
v -21.000000 9.000000 7.500000
v -21.000000 13.500000 7.500000
v -21.000000 13.500000 -7.500000
v -21.000000 16.500000 7.500000
v -21.000000 16.500000 6.000000
v -21.000000 13.500000 6.000000
v -21.000000 18.000000 7.500000
v -21.000000 18.000000 -7.500000
v -21.000000 16.500000 -7.500000
v -19.500000 19.500000 4.500000
v -19.500000 19.500000 -4.500000
v -19.500000 18.000000 -4.500000
v -19.500000 18.000000 4.500000
v -19.500000 18.000000 7.500000
v -19.500000 18.000000 -7.500000
v -12.000000 18.000000 4.500000
v -12.000000 18.000000 -4.500000
vn 1.0000 -0.0000 -0.0000
vn -1.0000 -0.0000 -0.0000
vn -0.0000 -0.0000 -1.0000
vn -0.0000 -0.0000 1.0000
vn -0.0000 1.0000 -0.0000
vn -0.0000 -1.0000 -0.0000
s 0
usemtl P16_orange
f 215//31 216//31 217//31 218//31
f 243//32 244//32 245//32 246//32
f 245//33 244//33 217//33 216//33
f 215//34 218//34 243//34 246//34
f 243//35 218//35 217//35 244//35
usemtl P16_silver
f 219//31 220//31 221//31 222//31
f 224//31 225//31 226//31 227//31
f 231//32 232//32 233//32 234//32
f 237//32 238//32 239//32 235//32
f 233//33 232//33 221//33 220//33
f 219//34 222//34 231//34 234//34
f 224//34 227//34 237//34 235//34
f 233//36 220//36 219//36 234//36
usemtl P16_white
f 222//31 221//31 223//31 224//31
f 227//31 228//31 229//31 230//31
f 225//31 223//31 228//31 226//31
f 235//32 236//32 232//32 231//32
f 240//32 241//32 242//32 237//32
f 238//32 242//32 236//32 239//32
f 232//33 241//33 229//33 221//33
f 222//34 224//34 235//34 231//34
f 227//34 230//34 240//34 237//34
f 240//35 247//35 248//35 241//35
f 247//35 230//35 249//35 246//35
f 245//35 250//35 229//35 248//35
f 215//35 249//35 250//35 216//35
o ThighR
v -3.000000 16.500000 3.000000
v -3.000000 16.500000 -4.500000
v -3.000000 22.500000 -4.500000
v -3.000000 22.500000 3.000000
v -3.000000 22.500000 1.500000
v -3.000000 22.500000 -3.000000
v -3.000000 24.000000 -3.000000
v -3.000000 24.000000 1.500000
v -9.000000 22.500000 3.000000
v -9.000000 22.500000 -4.500000
v -9.000000 16.500000 -4.500000
v -9.000000 16.500000 3.000000
v -9.000000 24.000000 1.500000
v -9.000000 24.000000 -3.000000
v -9.000000 22.500000 -3.000000
v -9.000000 22.500000 1.500000
vn 1.0000 -0.0000 -0.0000
vn -1.0000 -0.0000 -0.0000
vn -0.0000 -0.0000 -1.0000
vn -0.0000 -0.0000 1.0000
vn -0.0000 1.0000 -0.0000
vn -0.0000 -1.0000 -0.0000
s 0
usemtl P16_white
f 251//37 252//37 253//37 254//37
f 259//38 260//38 261//38 262//38
f 261//39 260//39 253//39 252//39
f 251//40 254//40 259//40 262//40
f 259//41 254//41 255//41 266//41
f 265//41 256//41 253//41 260//41
f 261//42 252//42 251//42 262//42
usemtl P16_orange
f 255//37 256//37 257//37 258//37
f 263//38 264//38 265//38 266//38
f 265//39 264//39 257//39 256//39
f 255//40 258//40 263//40 266//40
f 263//41 258//41 257//41 264//41
o ShinR
v -3.000000 6.000000 4.500000
v -3.000000 6.000000 3.000000
v -3.000000 9.000000 3.000000
v -3.000000 9.000000 4.500000
v -3.000000 9.000000 -6.000000
v -3.000000 15.000000 -6.000000
v -3.000000 15.000000 4.500000
v -3.000000 6.000000 -6.000000
v -3.000000 15.000000 3.000000
v -3.000000 15.000000 -4.500000
v -3.000000 16.500000 -4.500000
v -3.000000 16.500000 3.000000
v -9.000000 9.000000 4.500000
v -9.000000 9.000000 3.000000
v -9.000000 6.000000 3.000000
v -9.000000 6.000000 4.500000
v -9.000000 15.000000 4.500000
v -9.000000 15.000000 -6.000000
v -9.000000 9.000000 -6.000000
v -9.000000 6.000000 -6.000000
v -9.000000 16.500000 3.000000
v -9.000000 16.500000 -4.500000
v -9.000000 15.000000 -4.500000
v -9.000000 15.000000 3.000000
vn 1.0000 -0.0000 -0.0000
vn -1.0000 -0.0000 -0.0000
vn -0.0000 -0.0000 -1.0000
vn -0.0000 -0.0000 1.0000
vn -0.0000 1.0000 -0.0000
vn -0.0000 -1.0000 -0.0000
s 0
usemtl P16_silver
f 267//43 268//43 269//43 270//43
f 279//44 280//44 281//44 282//44
f 267//46 270//46 279//46 282//46
f 281//48 268//48 267//48 282//48
usemtl P16_white
f 270//43 271//43 272//43 273//43
f 268//43 274//43 271//43 269//43
f 283//44 284//44 285//44 279//44
f 280//44 285//44 286//44 281//44
f 286//45 284//45 272//45 274//45
f 270//46 273//46 283//46 279//46
f 283//47 273//47 275//47 290//47
f 289//47 276//47 272//47 284//47
f 286//48 274//48 268//48 281//48
usemtl P16_orange
f 275//43 276//43 277//43 278//43
f 287//44 288//44 289//44 290//44
f 289//45 288//45 277//45 276//45
f 275//46 278//46 287//46 290//46
f 287//47 278//47 277//47 288//47
o FootR
v -3.000000 4.500000 4.500000
v -3.000000 4.500000 -4.500000
v -3.000000 6.000000 -4.500000
v -3.000000 6.000000 4.500000
v -1.500000 0.000000 7.500000
v -1.500000 0.000000 6.000000
v -1.500000 3.000000 6.000000
v -1.500000 3.000000 7.500000
v -1.500000 3.000000 -7.500000
v -1.500000 4.500000 -7.500000
v -1.500000 4.500000 7.500000
v -1.500000 0.000000 -7.500000
v -10.500000 3.000000 7.500000
v -10.500000 3.000000 6.000000
v -10.500000 0.000000 6.000000
v -10.500000 0.000000 7.500000
v -10.500000 4.500000 7.500000
v -10.500000 4.500000 -7.500000
v -10.500000 3.000000 -7.500000
v -10.500000 0.000000 -7.500000
v -9.000000 6.000000 4.500000
v -9.000000 6.000000 -4.500000
v -9.000000 4.500000 -4.500000
v -9.000000 4.500000 4.500000
v -9.000000 4.500000 7.500000
v -9.000000 4.500000 -7.500000
v -1.500000 4.500000 4.500000
v -1.500000 4.500000 -4.500000
vn 1.0000 -0.0000 -0.0000
vn -1.0000 -0.0000 -0.0000
vn -0.0000 -0.0000 -1.0000
vn -0.0000 -0.0000 1.0000
vn -0.0000 1.0000 -0.0000
vn -0.0000 -1.0000 -0.0000
s 0
usemtl P16_orange
f 291//49 292//49 293//49 294//49
f 311//50 312//50 313//50 314//50
f 313//51 312//51 293//51 292//51
f 291//52 294//52 311//52 314//52
f 311//53 294//53 293//53 312//53
usemtl P16_silver
f 295//49 296//49 297//49 298//49
f 303//50 304//50 305//50 306//50
f 295//52 298//52 303//52 306//52
f 305//54 296//54 295//54 306//54
usemtl P16_white
f 298//49 299//49 300//49 301//49
f 296//49 302//49 299//49 297//49
f 307//50 308//50 309//50 303//50
f 304//50 309//50 310//50 305//50
f 310//51 308//51 300//51 302//51
f 298//52 301//52 307//52 303//52
f 307//53 315//53 316//53 308//53
f 315//53 301//53 317//53 314//53
f 313//53 318//53 300//53 316//53
f 291//53 317//53 318//53 292//53
f 310//54 302//54 296//54 305//54
o UpperArmL
v 19.500000 28.500000 4.500000
v 19.500000 28.500000 -6.000000
v 19.500000 37.500000 -6.000000
v 19.500000 37.500000 4.500000
v 10.500000 37.500000 3.000000
v 10.500000 37.500000 -4.500000
v 10.500000 33.000000 -4.500000
v 10.500000 33.000000 3.000000
v 13.500000 37.500000 4.500000
v 13.500000 37.500000 3.000000
v 13.500000 28.500000 3.000000
v 13.500000 28.500000 4.500000
v 13.500000 33.000000 3.000000
v 13.500000 33.000000 -6.000000
v 13.500000 28.500000 -6.000000
v 13.500000 37.500000 -4.500000
v 13.500000 37.500000 -6.000000
v 13.500000 33.000000 -4.500000
vn 1.0000 -0.0000 -0.0000
vn -1.0000 -0.0000 -0.0000
vn -0.0000 -0.0000 -1.0000
vn -0.0000 -0.0000 1.0000
vn -0.0000 1.0000 -0.0000
vn -0.0000 -1.0000 -0.0000
s 0
usemtl P16_white
f 319//55 320//55 321//55 322//55
f 327//56 328//56 329//56 330//56
f 331//56 332//56 333//56 329//56
f 334//56 335//56 332//56 336//56
f 333//57 335//57 321//57 320//57
f 319//58 322//58 327//58 330//58
f 327//59 322//59 321//59 335//59
f 333//60 320//60 319//60 330//60
usemtl P16_orange
f 323//56 324//56 325//56 326//56
f 325//57 324//57 334//57 336//57
f 331//58 328//58 323//58 326//58
f 323//59 328//59 334//59 324//59
f 325//60 336//60 331//60 326//60
o ForearmL
v 19.500000 27.000000 4.500000
v 19.500000 27.000000 -4.500000
v 19.500000 28.500000 -4.500000
v 19.500000 28.500000 4.500000
v 21.000000 19.500000 6.000000
v 21.000000 19.500000 3.000000
v 21.000000 27.000000 3.000000
v 21.000000 27.000000 6.000000
v 21.000000 19.500000 -6.000000
v 21.000000 21.000000 -6.000000
v 21.000000 21.000000 3.000000
v 21.000000 21.000000 -3.000000
v 21.000000 25.500000 -3.000000
v 21.000000 25.500000 3.000000
v 21.000000 25.500000 -6.000000
v 21.000000 27.000000 -6.000000
v 12.000000 27.000000 6.000000
v 12.000000 27.000000 -6.000000
v 12.000000 19.500000 -6.000000
v 12.000000 19.500000 6.000000
v 13.500000 28.500000 4.500000
v 13.500000 28.500000 -4.500000
v 13.500000 27.000000 -4.500000
v 13.500000 27.000000 4.500000
v 13.500000 27.000000 6.000000
v 13.500000 27.000000 -6.000000
v 21.000000 27.000000 4.500000
v 21.000000 27.000000 -4.500000
vn 1.0000 -0.0000 -0.0000
vn -1.0000 -0.0000 -0.0000
vn -0.0000 -0.0000 -1.0000
vn -0.0000 -0.0000 1.0000
vn -0.0000 1.0000 -0.0000
vn -0.0000 -1.0000 -0.0000
s 0
usemtl P16_orange
f 337//61 338//61 339//61 340//61
f 357//62 358//62 359//62 360//62
f 359//63 358//63 339//63 338//63
f 337//64 340//64 357//64 360//64
f 357//65 340//65 339//65 358//65
usemtl P16_white
f 341//61 342//61 343//61 344//61
f 342//61 345//61 346//61 347//61
f 350//61 351//61 352//61 343//61
f 348//61 346//61 351//61 349//61
f 353//62 354//62 355//62 356//62
f 355//63 354//63 352//63 345//63
f 341//64 344//64 353//64 356//64
f 353//65 361//65 362//65 354//65
f 361//65 344//65 363//65 360//65
f 359//65 364//65 352//65 362//65
f 337//65 363//65 364//65 338//65
f 355//66 345//66 341//66 356//66
usemtl P16_silver
f 347//61 348//61 349//61 350//61
o FistL
v 19.500000 18.000000 4.500000
v 19.500000 18.000000 -4.500000
v 19.500000 19.500000 -4.500000
v 19.500000 19.500000 4.500000
v 21.000000 9.000000 7.500000
v 21.000000 9.000000 -7.500000
v 21.000000 10.500000 -7.500000
v 21.000000 10.500000 7.500000
v 21.000000 13.500000 -7.500000
v 21.000000 13.500000 7.500000
v 21.000000 13.500000 6.000000
v 21.000000 16.500000 6.000000
v 21.000000 16.500000 7.500000
v 21.000000 16.500000 -7.500000
v 21.000000 18.000000 -7.500000
v 21.000000 18.000000 7.500000
v 12.000000 10.500000 7.500000
v 12.000000 10.500000 -7.500000
v 12.000000 9.000000 -7.500000
v 12.000000 9.000000 7.500000
v 12.000000 13.500000 7.500000
v 12.000000 13.500000 -7.500000
v 12.000000 16.500000 7.500000
v 12.000000 16.500000 6.000000
v 12.000000 13.500000 6.000000
v 12.000000 18.000000 7.500000
v 12.000000 18.000000 -7.500000
v 12.000000 16.500000 -7.500000
v 13.500000 19.500000 4.500000
v 13.500000 19.500000 -4.500000
v 13.500000 18.000000 -4.500000
v 13.500000 18.000000 4.500000
v 13.500000 18.000000 7.500000
v 13.500000 18.000000 -7.500000
v 21.000000 18.000000 4.500000
v 21.000000 18.000000 -4.500000
vn 1.0000 -0.0000 -0.0000
vn -1.0000 -0.0000 -0.0000
vn -0.0000 -0.0000 -1.0000
vn -0.0000 -0.0000 1.0000
vn -0.0000 1.0000 -0.0000
vn -0.0000 -1.0000 -0.0000
s 0
usemtl P16_orange
f 365//67 366//67 367//67 368//67
f 393//68 394//68 395//68 396//68
f 395//69 394//69 367//69 366//69
f 365//70 368//70 393//70 396//70
f 393//71 368//71 367//71 394//71
usemtl P16_silver
f 369//67 370//67 371//67 372//67
f 374//67 375//67 376//67 377//67
f 381//68 382//68 383//68 384//68
f 387//68 388//68 389//68 385//68
f 383//69 382//69 371//69 370//69
f 369//70 372//70 381//70 384//70
f 374//70 377//70 387//70 385//70
f 383//72 370//72 369//72 384//72
usemtl P16_white
f 372//67 371//67 373//67 374//67
f 377//67 378//67 379//67 380//67
f 375//67 373//67 378//67 376//67
f 385//68 386//68 382//68 381//68
f 390//68 391//68 392//68 387//68
f 388//68 392//68 386//68 389//68
f 382//69 391//69 379//69 371//69
f 372//70 374//70 385//70 381//70
f 377//70 380//70 390//70 387//70
f 390//71 397//71 398//71 391//71
f 397//71 380//71 399//71 396//71
f 395//71 400//71 379//71 398//71
f 365//71 399//71 400//71 366//71
o ThighL
v 9.000000 16.500000 3.000000
v 9.000000 16.500000 -4.500000
v 9.000000 22.500000 -4.500000
v 9.000000 22.500000 3.000000
v 9.000000 22.500000 1.500000
v 9.000000 22.500000 -3.000000
v 9.000000 24.000000 -3.000000
v 9.000000 24.000000 1.500000
v 3.000000 22.500000 3.000000
v 3.000000 22.500000 -4.500000
v 3.000000 16.500000 -4.500000
v 3.000000 16.500000 3.000000
v 3.000000 24.000000 1.500000
v 3.000000 24.000000 -3.000000
v 3.000000 22.500000 -3.000000
v 3.000000 22.500000 1.500000
vn 1.0000 -0.0000 -0.0000
vn -1.0000 -0.0000 -0.0000
vn -0.0000 -0.0000 -1.0000
vn -0.0000 -0.0000 1.0000
vn -0.0000 1.0000 -0.0000
vn -0.0000 -1.0000 -0.0000
s 0
usemtl P16_white
f 401//73 402//73 403//73 404//73
f 409//74 410//74 411//74 412//74
f 411//75 410//75 403//75 402//75
f 401//76 404//76 409//76 412//76
f 409//77 404//77 405//77 416//77
f 415//77 406//77 403//77 410//77
f 411//78 402//78 401//78 412//78
usemtl P16_orange
f 405//73 406//73 407//73 408//73
f 413//74 414//74 415//74 416//74
f 415//75 414//75 407//75 406//75
f 405//76 408//76 413//76 416//76
f 413//77 408//77 407//77 414//77
o ShinL
v 9.000000 6.000000 4.500000
v 9.000000 6.000000 3.000000
v 9.000000 9.000000 3.000000
v 9.000000 9.000000 4.500000
v 9.000000 9.000000 -6.000000
v 9.000000 15.000000 -6.000000
v 9.000000 15.000000 4.500000
v 9.000000 6.000000 -6.000000
v 9.000000 15.000000 3.000000
v 9.000000 15.000000 -4.500000
v 9.000000 16.500000 -4.500000
v 9.000000 16.500000 3.000000
v 3.000000 9.000000 4.500000
v 3.000000 9.000000 3.000000
v 3.000000 6.000000 3.000000
v 3.000000 6.000000 4.500000
v 3.000000 15.000000 4.500000
v 3.000000 15.000000 -6.000000
v 3.000000 9.000000 -6.000000
v 3.000000 6.000000 -6.000000
v 3.000000 16.500000 3.000000
v 3.000000 16.500000 -4.500000
v 3.000000 15.000000 -4.500000
v 3.000000 15.000000 3.000000
vn 1.0000 -0.0000 -0.0000
vn -1.0000 -0.0000 -0.0000
vn -0.0000 -0.0000 -1.0000
vn -0.0000 -0.0000 1.0000
vn -0.0000 1.0000 -0.0000
vn -0.0000 -1.0000 -0.0000
s 0
usemtl P16_silver
f 417//79 418//79 419//79 420//79
f 429//80 430//80 431//80 432//80
f 417//82 420//82 429//82 432//82
f 431//84 418//84 417//84 432//84
usemtl P16_white
f 420//79 421//79 422//79 423//79
f 418//79 424//79 421//79 419//79
f 433//80 434//80 435//80 429//80
f 430//80 435//80 436//80 431//80
f 436//81 434//81 422//81 424//81
f 420//82 423//82 433//82 429//82
f 433//83 423//83 425//83 440//83
f 439//83 426//83 422//83 434//83
f 436//84 424//84 418//84 431//84
usemtl P16_orange
f 425//79 426//79 427//79 428//79
f 437//80 438//80 439//80 440//80
f 439//81 438//81 427//81 426//81
f 425//82 428//82 437//82 440//82
f 437//83 428//83 427//83 438//83
o FootL
v 9.000000 4.500000 4.500000
v 9.000000 4.500000 -4.500000
v 9.000000 6.000000 -4.500000
v 9.000000 6.000000 4.500000
v 10.500000 0.000000 7.500000
v 10.500000 0.000000 6.000000
v 10.500000 3.000000 6.000000
v 10.500000 3.000000 7.500000
v 10.500000 3.000000 -7.500000
v 10.500000 4.500000 -7.500000
v 10.500000 4.500000 7.500000
v 10.500000 0.000000 -7.500000
v 1.500000 3.000000 7.500000
v 1.500000 3.000000 6.000000
v 1.500000 0.000000 6.000000
v 1.500000 0.000000 7.500000
v 1.500000 4.500000 7.500000
v 1.500000 4.500000 -7.500000
v 1.500000 3.000000 -7.500000
v 1.500000 0.000000 -7.500000
v 3.000000 6.000000 4.500000
v 3.000000 6.000000 -4.500000
v 3.000000 4.500000 -4.500000
v 3.000000 4.500000 4.500000
v 3.000000 4.500000 7.500000
v 3.000000 4.500000 -7.500000
v 10.500000 4.500000 4.500000
v 10.500000 4.500000 -4.500000
vn 1.0000 -0.0000 -0.0000
vn -1.0000 -0.0000 -0.0000
vn -0.0000 -0.0000 -1.0000
vn -0.0000 -0.0000 1.0000
vn -0.0000 1.0000 -0.0000
vn -0.0000 -1.0000 -0.0000
s 0
usemtl P16_orange
f 441//85 442//85 443//85 444//85
f 461//86 462//86 463//86 464//86
f 463//87 462//87 443//87 442//87
f 441//88 444//88 461//88 464//88
f 461//89 444//89 443//89 462//89
usemtl P16_silver
f 445//85 446//85 447//85 448//85
f 453//86 454//86 455//86 456//86
f 445//88 448//88 453//88 456//88
f 455//90 446//90 445//90 456//90
usemtl P16_white
f 448//85 449//85 450//85 451//85
f 446//85 452//85 449//85 447//85
f 457//86 458//86 459//86 453//86
f 454//86 459//86 460//86 455//86
f 460//87 458//87 450//87 452//87
f 448//88 451//88 457//88 453//88
f 457//89 465//89 466//89 458//89
f 465//89 451//89 467//89 464//89
f 463//89 468//89 450//89 466//89
f 441//89 467//89 468//89 442//89
f 460//90 452//90 446//90 455//90
